<svg width="18" height="21" viewBox="0 0 18 21" fill="none" xmlns="http://www.w3.org/2000/svg">
<path d="M9.85759 0.866229C9.38326 0.377924 8.61295 0.377924 8.13862 0.866229L3.28147 5.86647C2.80714 6.35478 2.80714 7.14779 3.28147 7.63609C3.7558 8.1244 4.52612 8.1244 5.00045 7.63609L7.78571 4.76876L7.78571 12.9996C7.78571 13.6911 8.32835 14.2497 9 14.2497C9.67165 14.2497 10.2143 13.6911 10.2143 12.9996V4.76876L12.9996 7.63609C13.4739 8.1244 14.2442 8.1244 14.7185 7.63609C15.1929 7.14779 15.1929 6.35478 14.7185 5.86647L9.86138 0.866229H9.85759ZM2.92857 14.2497C2.92857 13.5583 2.38594 12.9996 1.71429 12.9996C1.04263 12.9996 0.5 13.5583 0.5 14.2497L0.5 16.7498C0.5 18.8202 2.1317 20.5 4.14286 20.5L13.8571 20.5C15.8683 20.5 17.5 18.8202 17.5 16.7498V14.2497C17.5 13.5583 16.9574 12.9996 16.2857 12.9996C15.6141 12.9996 15.0714 13.5583 15.0714 14.2497V16.7498C15.0714 17.4413 14.5288 17.9999 13.8571 17.9999H4.14286C3.47121 17.9999 2.92857 17.4413 2.92857 16.7498L2.92857 14.2497Z" fill="#F8F8F8"/>
</svg>
