<svg width="250" height="28" viewBox="0 0 250 28" fill="none" xmlns="http://www.w3.org/2000/svg">
<path d="M41.4957 21L37.3906 6.45455H40.2244L42.8452 17.1435H42.9801L45.7784 6.45455H48.3565L51.1619 17.1506H51.2898L53.9105 6.45455H56.7443L52.6392 21H50.0398L47.1278 10.794H47.0142L44.0952 21H41.4957ZM58.4577 21V10.0909H61.0288V21H58.4577ZM59.7504 8.54261C59.3432 8.54261 58.9928 8.40767 58.6992 8.13778C58.4057 7.86316 58.2589 7.53409 58.2589 7.15057C58.2589 6.76231 58.4057 6.43324 58.6992 6.16335C58.9928 5.88873 59.3432 5.75142 59.7504 5.75142C60.1623 5.75142 60.5127 5.88873 60.8015 6.16335C61.0951 6.43324 61.2418 6.76231 61.2418 7.15057C61.2418 7.53409 61.0951 7.86316 60.8015 8.13778C60.5127 8.40767 60.1623 8.54261 59.7504 8.54261ZM69.12 10.0909V12.0795H62.8487V10.0909H69.12ZM64.397 7.47727H66.968V17.7188C66.968 18.0644 67.0201 18.3295 67.1243 18.5142C67.2332 18.6941 67.3752 18.8172 67.5504 18.8835C67.7256 18.9498 67.9197 18.983 68.1328 18.983C68.2938 18.983 68.4406 18.9711 68.5732 18.9474C68.7105 18.9238 68.8146 18.9025 68.8857 18.8835L69.3189 20.8935C69.1816 20.9408 68.9851 20.9929 68.7294 21.0497C68.4785 21.1065 68.1707 21.1397 67.8061 21.1491C67.1622 21.1681 66.5821 21.071 66.0661 20.858C65.55 20.6402 65.1404 20.304 64.8374 19.8494C64.5391 19.3949 64.3923 18.8267 64.397 18.1449V7.47727ZM74.0756 14.608V21H71.5046V6.45455H74.0188V11.9446H74.1467C74.4023 11.3291 74.7977 10.8437 75.3327 10.4886C75.8725 10.1288 76.5591 9.94886 77.3924 9.94886C78.15 9.94886 78.8105 10.1075 79.3739 10.4247C79.9374 10.742 80.373 11.206 80.6808 11.8168C80.9933 12.4276 81.1495 13.1733 81.1495 14.054V21H78.5785V14.4517C78.5785 13.7178 78.3891 13.1473 78.0103 12.7401C77.6362 12.3281 77.1107 12.1222 76.4336 12.1222C75.979 12.1222 75.5719 12.2216 75.212 12.4205C74.8569 12.6146 74.5775 12.8963 74.3739 13.2656C74.1751 13.6349 74.0756 14.0824 74.0756 14.608ZM88.5998 21.2131C87.506 21.2131 86.5614 20.9858 85.766 20.5312C84.9753 20.072 84.3668 19.4233 83.9407 18.5852C83.5146 17.7424 83.3015 16.7505 83.3015 15.6094C83.3015 14.4872 83.5146 13.5024 83.9407 12.6548C84.3716 11.8026 84.9729 11.1397 85.7447 10.6662C86.5165 10.188 87.4232 9.94886 88.4648 9.94886C89.1372 9.94886 89.7717 10.0578 90.3683 10.2756C90.9696 10.4886 91.4999 10.8201 91.9592 11.2699C92.4232 11.7197 92.7878 12.2926 93.0529 12.9886C93.3181 13.6799 93.4506 14.5038 93.4506 15.4602V16.2486H84.5089V14.5156H90.9862C90.9814 14.0232 90.8749 13.5852 90.6665 13.2017C90.4582 12.8134 90.167 12.508 89.793 12.2855C89.4237 12.063 88.9928 11.9517 88.5004 11.9517C87.9748 11.9517 87.5131 12.0795 87.1154 12.3352C86.7177 12.5862 86.4076 12.9176 86.185 13.3295C85.9672 13.7367 85.8559 14.1842 85.8512 14.6719V16.1847C85.8512 16.8191 85.9672 17.3636 86.1992 17.8182C86.4312 18.268 86.7556 18.6136 87.1722 18.8551C87.5889 19.0919 88.0766 19.2102 88.6353 19.2102C89.0094 19.2102 89.3479 19.1581 89.6509 19.054C89.954 18.9451 90.2167 18.7865 90.4393 18.5781C90.6618 18.3698 90.8299 18.1117 90.9435 17.804L93.3441 18.0739C93.1926 18.7083 92.9038 19.2623 92.4776 19.7358C92.0562 20.2045 91.5165 20.5691 90.8583 20.8295C90.2002 21.0852 89.4473 21.2131 88.5998 21.2131ZM95.6257 21V10.0909H98.1186V11.9091H98.2322C98.4311 11.2794 98.772 10.794 99.255 10.4531C99.7427 10.1075 100.299 9.93466 100.924 9.93466C101.066 9.93466 101.225 9.94176 101.4 9.95597C101.58 9.96544 101.729 9.98201 101.847 10.0057V12.3707C101.738 12.3329 101.566 12.2997 101.329 12.2713C101.097 12.2382 100.872 12.2216 100.654 12.2216C100.185 12.2216 99.764 12.3234 99.3899 12.527C99.0206 12.7259 98.7294 13.0028 98.5163 13.358C98.3033 13.7131 98.1967 14.1226 98.1967 14.5866V21H95.6257ZM107.936 21.2131C106.842 21.2131 105.897 20.9858 105.102 20.5312C104.311 20.072 103.703 19.4233 103.277 18.5852C102.85 17.7424 102.637 16.7505 102.637 15.6094C102.637 14.4872 102.85 13.5024 103.277 12.6548C103.708 11.8026 104.309 11.1397 105.081 10.6662C105.852 10.188 106.759 9.94886 107.801 9.94886C108.473 9.94886 109.108 10.0578 109.704 10.2756C110.306 10.4886 110.836 10.8201 111.295 11.2699C111.759 11.7197 112.124 12.2926 112.389 12.9886C112.654 13.6799 112.787 14.5038 112.787 15.4602V16.2486H103.845V14.5156H110.322C110.317 14.0232 110.211 13.5852 110.002 13.2017C109.794 12.8134 109.503 12.508 109.129 12.2855C108.76 12.063 108.329 11.9517 107.836 11.9517C107.311 11.9517 106.849 12.0795 106.451 12.3352C106.054 12.5862 105.743 12.9176 105.521 13.3295C105.303 13.7367 105.192 14.1842 105.187 14.6719V16.1847C105.187 16.8191 105.303 17.3636 105.535 17.8182C105.767 18.268 106.092 18.6136 106.508 18.8551C106.925 19.0919 107.413 19.2102 107.971 19.2102C108.345 19.2102 108.684 19.1581 108.987 19.054C109.29 18.9451 109.553 18.7865 109.775 18.5781C109.998 18.3698 110.166 18.1117 110.279 17.804L112.68 18.0739C112.529 18.7083 112.24 19.2623 111.814 19.7358C111.392 20.2045 110.852 20.5691 110.194 20.8295C109.536 21.0852 108.783 21.2131 107.936 21.2131ZM119.01 21.1918C118.153 21.1918 117.386 20.9716 116.709 20.5312C116.032 20.0909 115.497 19.4517 115.104 18.6136C114.711 17.7756 114.514 16.7576 114.514 15.5597C114.514 14.3475 114.713 13.3248 115.111 12.4915C115.513 11.6534 116.055 11.0213 116.737 10.5952C117.419 10.1643 118.179 9.94886 119.017 9.94886C119.656 9.94886 120.182 10.0578 120.594 10.2756C121.006 10.4886 121.332 10.7467 121.574 11.0497C121.815 11.348 122.002 11.6297 122.135 11.8949H122.241V6.45455H124.82V21H122.291V19.2812H122.135C122.002 19.5464 121.811 19.8281 121.56 20.1264C121.309 20.42 120.977 20.6709 120.565 20.8793C120.153 21.0876 119.635 21.1918 119.01 21.1918ZM119.727 19.0824C120.272 19.0824 120.736 18.9356 121.119 18.642C121.503 18.3437 121.794 17.9295 121.993 17.3991C122.192 16.8688 122.291 16.2509 122.291 15.5455C122.291 14.84 122.192 14.2268 121.993 13.706C121.799 13.1851 121.51 12.7803 121.126 12.4915C120.748 12.2027 120.281 12.0582 119.727 12.0582C119.154 12.0582 118.676 12.2074 118.293 12.5057C117.909 12.804 117.62 13.2159 117.426 13.7415C117.232 14.267 117.135 14.8684 117.135 15.5455C117.135 16.2273 117.232 16.8357 117.426 17.3707C117.625 17.901 117.916 18.3201 118.3 18.6278C118.688 18.9309 119.164 19.0824 119.727 19.0824ZM140.539 10.4531C140.472 9.83286 140.193 9.34991 139.701 9.00426C139.213 8.65862 138.578 8.4858 137.797 8.4858C137.248 8.4858 136.777 8.56866 136.384 8.73438C135.991 8.90009 135.69 9.125 135.482 9.40909C135.274 9.69318 135.167 10.0175 135.162 10.3821C135.162 10.6851 135.231 10.9479 135.368 11.1705C135.51 11.393 135.702 11.5824 135.944 11.7386C136.185 11.8902 136.453 12.018 136.746 12.1222C137.04 12.2263 137.336 12.3139 137.634 12.3849L138.998 12.7259C139.547 12.8537 140.075 13.0265 140.581 13.2443C141.093 13.4621 141.55 13.7367 141.952 14.0682C142.359 14.3996 142.681 14.7997 142.918 15.2685C143.155 15.7372 143.273 16.2865 143.273 16.9162C143.273 17.7685 143.055 18.5189 142.62 19.1676C142.184 19.8116 141.554 20.3158 140.73 20.6804C139.911 21.0402 138.919 21.2202 137.755 21.2202C136.623 21.2202 135.641 21.045 134.807 20.6946C133.979 20.3442 133.33 19.8329 132.861 19.1605C132.397 18.4882 132.146 17.669 132.108 16.7031H134.701C134.739 17.2098 134.895 17.6312 135.169 17.9673C135.444 18.3035 135.801 18.5545 136.242 18.7202C136.687 18.8859 137.184 18.9688 137.733 18.9688C138.306 18.9688 138.808 18.8835 139.239 18.7131C139.675 18.5379 140.016 18.2964 140.262 17.9886C140.508 17.6761 140.633 17.3116 140.638 16.8949C140.633 16.5161 140.522 16.2036 140.304 15.9574C140.087 15.7064 139.781 15.4981 139.388 15.3324C139 15.1619 138.545 15.0104 138.025 14.8778L136.37 14.4517C135.172 14.1439 134.225 13.6776 133.529 13.0526C132.837 12.4228 132.492 11.5871 132.492 10.5455C132.492 9.68845 132.724 8.93797 133.188 8.29403C133.657 7.65009 134.293 7.15057 135.098 6.79545C135.903 6.43561 136.815 6.25568 137.833 6.25568C138.865 6.25568 139.769 6.43561 140.546 6.79545C141.327 7.15057 141.94 7.64536 142.385 8.27983C142.83 8.90956 143.06 9.634 143.074 10.4531H140.539ZM150.267 21.2131C149.202 21.2131 148.278 20.9787 147.497 20.5099C146.716 20.0412 146.11 19.3854 145.679 18.5426C145.253 17.6998 145.04 16.715 145.04 15.5881C145.04 14.4612 145.253 13.474 145.679 12.6264C146.11 11.7789 146.716 11.1207 147.497 10.652C148.278 10.1832 149.202 9.94886 150.267 9.94886C151.332 9.94886 152.256 10.1832 153.037 10.652C153.818 11.1207 154.422 11.7789 154.848 12.6264C155.279 13.474 155.494 14.4612 155.494 15.5881C155.494 16.715 155.279 17.6998 154.848 18.5426C154.422 19.3854 153.818 20.0412 153.037 20.5099C152.256 20.9787 151.332 21.2131 150.267 21.2131ZM150.281 19.1534C150.859 19.1534 151.342 18.9948 151.73 18.6776C152.118 18.3556 152.407 17.9247 152.597 17.3849C152.791 16.8452 152.888 16.2438 152.888 15.581C152.888 14.9134 152.791 14.3097 152.597 13.7699C152.407 13.2254 152.118 12.7921 151.73 12.4702C151.342 12.1482 150.859 11.9872 150.281 11.9872C149.689 11.9872 149.197 12.1482 148.804 12.4702C148.416 12.7921 148.125 13.2254 147.93 13.7699C147.741 14.3097 147.646 14.9134 147.646 15.581C147.646 16.2438 147.741 16.8452 147.93 17.3849C148.125 17.9247 148.416 18.3556 148.804 18.6776C149.197 18.9948 149.689 19.1534 150.281 19.1534ZM164.63 16.4119V10.0909H167.201V21H164.708V19.0611H164.594C164.348 19.6719 163.943 20.1714 163.38 20.5597C162.821 20.9479 162.132 21.142 161.313 21.142C160.598 21.142 159.966 20.9834 159.417 20.6662C158.872 20.3442 158.446 19.8778 158.138 19.267C157.83 18.6515 157.676 17.9081 157.676 17.0369V10.0909H160.248V16.6392C160.248 17.3305 160.437 17.8797 160.816 18.2869C161.194 18.6941 161.692 18.8977 162.307 18.8977C162.686 18.8977 163.053 18.8054 163.408 18.6207C163.763 18.4361 164.054 18.1615 164.282 17.7969C164.514 17.4276 164.63 16.9659 164.63 16.4119ZM172.415 14.608V21H169.844V10.0909H172.302V11.9446H172.43C172.681 11.3338 173.081 10.8485 173.63 10.4886C174.184 10.1288 174.868 9.94886 175.683 9.94886C176.435 9.94886 177.091 10.1098 177.65 10.4318C178.213 10.7538 178.649 11.2202 178.957 11.831C179.269 12.4418 179.423 13.1828 179.418 14.054V21H176.847V14.4517C176.847 13.7225 176.658 13.152 176.279 12.7401C175.905 12.3281 175.387 12.1222 174.724 12.1222C174.274 12.1222 173.874 12.2216 173.523 12.4205C173.178 12.6146 172.906 12.8963 172.707 13.2656C172.513 13.6349 172.415 14.0824 172.415 14.608ZM186.08 21.1918C185.223 21.1918 184.456 20.9716 183.779 20.5312C183.102 20.0909 182.567 19.4517 182.174 18.6136C181.781 17.7756 181.585 16.7576 181.585 15.5597C181.585 14.3475 181.783 13.3248 182.181 12.4915C182.584 11.6534 183.126 11.0213 183.808 10.5952C184.489 10.1643 185.249 9.94886 186.087 9.94886C186.727 9.94886 187.252 10.0578 187.664 10.2756C188.076 10.4886 188.403 10.7467 188.644 11.0497C188.886 11.348 189.073 11.6297 189.205 11.8949H189.312V6.45455H191.89V21H189.362V19.2812H189.205C189.073 19.5464 188.881 19.8281 188.63 20.1264C188.379 20.42 188.048 20.6709 187.636 20.8793C187.224 21.0876 186.705 21.1918 186.08 21.1918ZM186.798 19.0824C187.342 19.0824 187.806 18.9356 188.19 18.642C188.573 18.3437 188.864 17.9295 189.063 17.3991C189.262 16.8688 189.362 16.2509 189.362 15.5455C189.362 14.84 189.262 14.2268 189.063 13.706C188.869 13.1851 188.58 12.7803 188.197 12.4915C187.818 12.2027 187.352 12.0582 186.798 12.0582C186.225 12.0582 185.746 12.2074 185.363 12.5057C184.979 12.804 184.691 13.2159 184.496 13.7415C184.302 14.267 184.205 14.8684 184.205 15.5455C184.205 16.2273 184.302 16.8357 184.496 17.3707C184.695 17.901 184.987 18.3201 185.37 18.6278C185.758 18.9309 186.234 19.0824 186.798 19.0824ZM194.743 21V6.45455H197.314V11.8949H197.421C197.553 11.6297 197.74 11.348 197.982 11.0497C198.223 10.7467 198.55 10.4886 198.962 10.2756C199.374 10.0578 199.9 9.94886 200.539 9.94886C201.382 9.94886 202.141 10.1643 202.819 10.5952C203.5 11.0213 204.04 11.6534 204.438 12.4915C204.84 13.3248 205.042 14.3475 205.042 15.5597C205.042 16.7576 204.845 17.7756 204.452 18.6136C204.059 19.4517 203.524 20.0909 202.847 20.5312C202.17 20.9716 201.403 21.1918 200.546 21.1918C199.921 21.1918 199.402 21.0876 198.99 20.8793C198.578 20.6709 198.247 20.42 197.996 20.1264C197.75 19.8281 197.558 19.5464 197.421 19.2812H197.272V21H194.743ZM197.265 15.5455C197.265 16.2509 197.364 16.8688 197.563 17.3991C197.766 17.9295 198.058 18.3437 198.436 18.642C198.82 18.9356 199.284 19.0824 199.828 19.0824C200.397 19.0824 200.873 18.9309 201.256 18.6278C201.64 18.3201 201.928 17.901 202.123 17.3707C202.321 16.8357 202.421 16.2273 202.421 15.5455C202.421 14.8684 202.324 14.267 202.13 13.7415C201.935 13.2159 201.647 12.804 201.263 12.5057C200.88 12.2074 200.401 12.0582 199.828 12.0582C199.279 12.0582 198.813 12.2027 198.429 12.4915C198.046 12.7803 197.755 13.1851 197.556 13.706C197.362 14.2268 197.265 14.84 197.265 15.5455ZM211.986 21.2131C210.92 21.2131 209.997 20.9787 209.216 20.5099C208.435 20.0412 207.829 19.3854 207.398 18.5426C206.972 17.6998 206.759 16.715 206.759 15.5881C206.759 14.4612 206.972 13.474 207.398 12.6264C207.829 11.7789 208.435 11.1207 209.216 10.652C209.997 10.1832 210.92 9.94886 211.986 9.94886C213.051 9.94886 213.974 10.1832 214.756 10.652C215.537 11.1207 216.141 11.7789 216.567 12.6264C216.998 13.474 217.213 14.4612 217.213 15.5881C217.213 16.715 216.998 17.6998 216.567 18.5426C216.141 19.3854 215.537 20.0412 214.756 20.5099C213.974 20.9787 213.051 21.2131 211.986 21.2131ZM212 19.1534C212.578 19.1534 213.061 18.9948 213.449 18.6776C213.837 18.3556 214.126 17.9247 214.315 17.3849C214.509 16.8452 214.607 16.2438 214.607 15.581C214.607 14.9134 214.509 14.3097 214.315 13.7699C214.126 13.2254 213.837 12.7921 213.449 12.4702C213.061 12.1482 212.578 11.9872 212 11.9872C211.408 11.9872 210.916 12.1482 210.523 12.4702C210.134 12.7921 209.843 13.2254 209.649 13.7699C209.46 14.3097 209.365 14.9134 209.365 15.581C209.365 16.2438 209.46 16.8452 209.649 17.3849C209.843 17.9247 210.134 18.3556 210.523 18.6776C210.916 18.9948 211.408 19.1534 212 19.1534ZM222.534 21.2202C221.843 21.2202 221.221 21.0971 220.667 20.8509C220.117 20.5999 219.682 20.2306 219.36 19.7429C219.042 19.2552 218.884 18.6539 218.884 17.9389C218.884 17.3234 218.998 16.8144 219.225 16.4119C219.452 16.0095 219.762 15.6875 220.155 15.446C220.548 15.2045 220.991 15.0223 221.483 14.8991C221.98 14.7713 222.494 14.679 223.025 14.6222C223.664 14.5559 224.182 14.4967 224.58 14.4446C224.978 14.3878 225.266 14.3026 225.446 14.1889C225.631 14.0705 225.723 13.8883 225.723 13.642V13.5994C225.723 13.0644 225.565 12.6501 225.248 12.3565C224.93 12.063 224.473 11.9162 223.877 11.9162C223.247 11.9162 222.748 12.0535 222.378 12.3281C222.014 12.6027 221.767 12.9271 221.64 13.3011L219.239 12.9602C219.428 12.2973 219.741 11.7434 220.176 11.2983C220.612 10.8485 221.145 10.5123 221.775 10.2898C222.404 10.0625 223.1 9.94886 223.863 9.94886C224.388 9.94886 224.911 10.0104 225.432 10.1335C225.953 10.2566 226.429 10.4602 226.86 10.7443C227.291 11.0237 227.636 11.4048 227.897 11.8878C228.162 12.3707 228.294 12.9744 228.294 13.6989V21H225.823V19.5014H225.738C225.581 19.8045 225.361 20.0885 225.077 20.3537C224.798 20.6141 224.445 20.8248 224.019 20.9858C223.597 21.142 223.103 21.2202 222.534 21.2202ZM223.202 19.331C223.718 19.331 224.166 19.2292 224.544 19.0256C224.923 18.8172 225.214 18.5426 225.418 18.2017C225.626 17.8608 225.73 17.4891 225.73 17.0866V15.8011C225.65 15.8674 225.513 15.929 225.319 15.9858C225.129 16.0426 224.916 16.0923 224.679 16.1349C224.443 16.1776 224.208 16.2154 223.976 16.2486C223.744 16.2817 223.543 16.3101 223.373 16.3338C222.989 16.3859 222.646 16.4711 222.343 16.5895C222.04 16.7079 221.801 16.8736 221.625 17.0866C221.45 17.295 221.363 17.5649 221.363 17.8963C221.363 18.3698 221.535 18.7273 221.881 18.9688C222.227 19.2102 222.667 19.331 223.202 19.331ZM230.88 21V10.0909H233.373V11.9091H233.486C233.685 11.2794 234.026 10.794 234.509 10.4531C234.997 10.1075 235.553 9.93466 236.178 9.93466C236.32 9.93466 236.479 9.94176 236.654 9.95597C236.834 9.96544 236.983 9.98201 237.101 10.0057V12.3707C236.992 12.3329 236.819 12.2997 236.583 12.2713C236.351 12.2382 236.126 12.2216 235.908 12.2216C235.439 12.2216 235.018 12.3234 234.644 12.527C234.275 12.7259 233.983 13.0028 233.77 13.358C233.557 13.7131 233.451 14.1226 233.451 14.5866V21H230.88ZM242.408 21.1918C241.551 21.1918 240.784 20.9716 240.107 20.5312C239.43 20.0909 238.895 19.4517 238.502 18.6136C238.109 17.7756 237.913 16.7576 237.913 15.5597C237.913 14.3475 238.112 13.3248 238.509 12.4915C238.912 11.6534 239.454 11.0213 240.136 10.5952C240.817 10.1643 241.577 9.94886 242.415 9.94886C243.055 9.94886 243.58 10.0578 243.992 10.2756C244.404 10.4886 244.731 10.7467 244.972 11.0497C245.214 11.348 245.401 11.6297 245.533 11.8949H245.64V6.45455H248.218V21H245.69V19.2812H245.533C245.401 19.5464 245.209 19.8281 244.958 20.1264C244.707 20.42 244.376 20.6709 243.964 20.8793C243.552 21.0876 243.033 21.1918 242.408 21.1918ZM243.126 19.0824C243.67 19.0824 244.134 18.9356 244.518 18.642C244.901 18.3437 245.192 17.9295 245.391 17.3991C245.59 16.8688 245.69 16.2509 245.69 15.5455C245.69 14.84 245.59 14.2268 245.391 13.706C245.197 13.1851 244.908 12.7803 244.525 12.4915C244.146 12.2027 243.68 12.0582 243.126 12.0582C242.553 12.0582 242.075 12.2074 241.691 12.5057C241.308 12.804 241.019 13.2159 240.825 13.7415C240.63 14.267 240.533 14.8684 240.533 15.5455C240.533 16.2273 240.63 16.8357 240.825 17.3707C241.023 17.901 241.315 18.3201 241.698 18.6278C242.086 18.9309 242.562 19.0824 243.126 19.0824Z" fill="white"/>
<path d="M0 10.6033C0 6.70064 0 4.74933 0.81937 3.28624C1.39845 2.25221 2.25221 1.39845 3.28624 0.81937C4.74933 0 6.70064 0 10.6033 0H17.3967C21.2994 0 23.2507 0 24.7138 0.81937C25.7478 1.39845 26.6015 2.25221 27.1806 3.28624C28 4.74933 28 6.70064 28 10.6033V17.3967C28 21.2994 28 23.2507 27.1806 24.7138C26.6015 25.7478 25.7478 26.6015 24.7138 27.1806C23.2507 28 21.2994 28 17.3967 28H10.6033C6.70064 28 4.74933 28 3.28624 27.1806C2.25221 26.6015 1.39845 25.7478 0.81937 24.7138C0 23.2507 0 21.2994 0 17.3967V10.6033Z" fill="#D9D9D9"/>
<path fill-rule="evenodd" clip-rule="evenodd" d="M21.2164 18.1392C20.5282 20.5282 16.5156 21.5071 12.2539 20.3256C7.99227 19.1442 5.09539 16.2498 5.78358 13.8608C6.47176 11.4718 10.4844 10.4929 14.7461 11.6744C19.0077 12.8558 21.9046 15.7502 21.2164 18.1392ZM12.2851 20.2174C16.4858 21.382 20.4352 20.4378 21.1062 18.1086C21.7772 15.7794 18.9157 12.9471 14.7149 11.7825C10.5141 10.6179 6.56477 11.5621 5.89379 13.8913C5.22281 16.2206 8.08428 19.0529 12.2851 20.2174Z" fill="#636363"/>
<path fill-rule="evenodd" clip-rule="evenodd" d="M22.8699 18.5976C22.0097 21.5838 17.1173 22.8416 11.9424 21.407C6.76754 19.9724 3.26982 16.3886 4.13006 13.4024C4.99029 10.4162 9.88271 9.15837 15.0576 10.593C20.2325 12.0276 23.7302 15.6114 22.8699 18.5976ZM21.2164 18.1392C20.5282 20.5282 16.5156 21.5071 12.2539 20.3256C7.99227 19.1442 5.09539 16.2498 5.78358 13.8608C6.47176 11.4718 10.4844 10.4929 14.7461 11.6744C19.0077 12.8558 21.9046 15.7502 21.2164 18.1392Z" fill="#343434"/>
<path d="M21.1062 18.1086C20.4352 20.4378 16.4858 21.382 12.2851 20.2174C8.08428 19.0529 5.22281 16.2206 5.89379 13.8913C6.56477 11.5621 10.5141 10.6179 14.7149 11.7825C18.9157 12.9471 21.7772 15.7794 21.1062 18.1086Z" fill="#343434"/>
<path fill-rule="evenodd" clip-rule="evenodd" d="M22.3235 11.5C22.3235 13.9301 18.8208 15.9 14.5 15.9C10.1792 15.9 6.67647 13.9301 6.67647 11.5C6.67647 9.06995 10.1792 7.1 14.5 7.1C18.8208 7.1 22.3235 9.06995 22.3235 11.5ZM14.5 15.79C18.7591 15.79 22.2117 13.8693 22.2117 11.5C22.2117 9.13067 18.7591 7.20997 14.5 7.20997C10.2409 7.20997 6.78821 9.13067 6.78821 11.5C6.78821 13.8693 10.2409 15.79 14.5 15.79Z" fill="#343434"/>
<path fill-rule="evenodd" clip-rule="evenodd" d="M24 11.5C24 14.5376 19.7467 17 14.5 17C9.25329 17 5 14.5376 5 11.5C5 8.46243 9.25329 6 14.5 6C19.7467 6 24 8.46243 24 11.5ZM22.3235 11.5C22.3235 13.9301 18.8208 15.9 14.5 15.9C10.1792 15.9 6.67647 13.9301 6.67647 11.5C6.67647 9.06995 10.1792 7.1 14.5 7.1C18.8208 7.1 22.3235 9.06995 22.3235 11.5Z" fill="#636363"/>
<path d="M22.2117 11.5C22.2117 13.8693 18.7591 15.79 14.5 15.79C10.2409 15.79 6.78821 13.8693 6.78821 11.5C6.78821 9.13067 10.2409 7.20997 14.5 7.20997C18.7591 7.20997 22.2117 9.13067 22.2117 11.5Z" fill="#636363"/>
<path d="M16.4917 11.6172C16.4453 11.183 16.2498 10.8449 15.9051 10.603C15.5637 10.361 15.1196 10.2401 14.5727 10.2401C14.1882 10.2401 13.8585 10.2981 13.5834 10.4141C13.3083 10.5301 13.0978 10.6875 12.952 10.8864C12.8061 11.0852 12.7316 11.3123 12.7282 11.5675C12.7282 11.7796 12.7763 11.9635 12.8724 12.1193C12.9719 12.2751 13.1061 12.4077 13.2751 12.517C13.4442 12.6231 13.6314 12.7126 13.8369 12.7855C14.0424 12.8584 14.2496 12.9197 14.4584 12.9695L15.4129 13.2081C15.7974 13.2976 16.1669 13.4186 16.5216 13.571C16.8795 13.7235 17.1994 13.9157 17.4811 14.1477C17.7661 14.3797 17.9915 14.6598 18.1572 14.9879C18.3229 15.3161 18.4058 15.7005 18.4058 16.1413C18.4058 16.7379 18.2533 17.2633 17.9484 17.7173C17.6435 18.1681 17.2027 18.5211 16.626 18.7763C16.0526 19.0282 15.3582 19.1541 14.5429 19.1541C13.7507 19.1541 13.063 19.0315 12.4797 18.7862C11.8997 18.541 11.4456 18.183 11.1175 17.7124C10.7926 17.2417 10.617 16.6683 10.5905 15.9922H12.4051C12.4316 16.3468 12.541 16.6418 12.7332 16.8771C12.9255 17.1125 13.1757 17.2881 13.4839 17.4041C13.7955 17.5201 14.1435 17.5781 14.528 17.5781C14.929 17.5781 15.2803 17.5185 15.5819 17.3991C15.8869 17.2765 16.1255 17.1075 16.2979 16.892C16.4702 16.6733 16.558 16.4181 16.5613 16.1264C16.558 15.8613 16.4801 15.6425 16.3277 15.4702C16.1752 15.2945 15.9614 15.1487 15.6863 15.0327C15.4146 14.9134 15.0964 14.8073 14.7318 14.7145L13.5734 14.4162C12.7349 14.2008 12.072 13.8743 11.5848 13.4368C11.1009 12.996 10.8589 12.411 10.8589 11.6818C10.8589 11.0819 11.0213 10.5566 11.3461 10.1058C11.6743 9.65507 12.1201 9.3054 12.6835 9.05682C13.247 8.80492 13.885 8.67898 14.5976 8.67898C15.3201 8.67898 15.9532 8.80492 16.4967 9.05682C17.0436 9.3054 17.4728 9.65175 17.7844 10.0959C18.0959 10.5367 18.2567 11.0438 18.2666 11.6172H16.4917Z" fill="#D9D9D9"/>
</svg>
